<svg width="162" height="26" viewBox="0 0 162 26" fill="none" xmlns="http://www.w3.org/2000/svg">
<path d="M17.7688 12.6504C17.8407 12.6892 17.9127 12.7281 17.9487 12.7669C19.9998 13.3886 21.2232 14.9427 21.727 17.0795C22.3027 19.4495 21.835 21.6253 20.2157 23.4125C19.3521 24.3449 18.2725 24.85 17.0491 25.0831C16.4733 25.1997 15.8616 25.2385 15.2499 25.2385C11.3996 25.2385 7.51333 25.2385 3.66304 25.2385C3.48312 25.2385 3.3032 25.2385 3.0873 25.2385C3.0873 25.0054 3.05131 24.85 3.05131 24.6558C3.05131 22.2081 3.05131 19.7603 3.05131 17.3126C3.05131 13 3.05131 8.68743 3.05131 4.37482C3.05131 4.02515 2.97934 3.79203 2.76344 3.52007C2.22368 2.78187 1.68392 2.04367 1.14416 1.30548C1.07219 1.18892 1.00022 1.07237 0.892273 0.916956C1.07219 0.916956 1.21613 0.878113 1.36006 0.878113C5.96601 0.878113 10.572 0.878113 15.1419 0.878113C16.7252 0.878113 18.2006 1.34433 19.424 2.47105C20.5755 3.52006 21.1872 4.8799 21.2952 6.5117C21.3672 7.75498 21.2232 8.99826 20.6475 10.0861C20.0358 11.2517 19.1721 12.0676 17.9847 12.4949C17.9847 12.5727 17.9127 12.6115 17.7688 12.6504ZM7.90915 20.6539C8.08907 20.6539 8.23301 20.6928 8.37694 20.6928C10.3201 20.6928 12.2632 20.6928 14.2064 20.6928C14.4582 20.6928 14.7101 20.6539 14.962 20.6151C15.6817 20.4597 16.2934 20.11 16.6892 19.4107C17.5888 17.7012 16.7612 15.6808 14.998 15.2146C14.7461 15.1369 14.4582 15.1369 14.2064 15.1369C12.2632 15.1369 10.3201 15.1369 8.37694 15.1369C8.23301 15.1369 8.08907 15.1369 7.90915 15.1758C7.90915 16.963 7.90915 18.789 7.90915 20.6539ZM7.90915 10.5135C8.05309 10.5135 8.12505 10.5523 8.19702 10.5523C10.1402 10.5523 12.0833 10.5523 14.0624 10.5523C14.4223 10.5523 14.7821 10.4746 15.1419 10.3192C16.0775 9.9307 16.5453 9.15365 16.5813 8.10464C16.6173 7.09448 16.2215 6.27858 15.3578 5.7735C14.89 5.50153 14.3503 5.42384 13.8105 5.42384C11.9753 5.42384 10.1761 5.42384 8.34096 5.42384C8.19702 5.42384 8.05309 5.42383 7.90915 5.46268C7.90915 7.13333 7.90915 8.80399 7.90915 10.5135Z" fill="white"/>
<path d="M98.445 25.1997C96.8617 25.1997 95.2784 25.1997 93.6591 25.1997C93.6591 24.9666 93.6591 24.8112 93.6591 24.6169C93.6591 17.8955 93.6591 11.174 93.6591 4.45258C93.6591 4.06406 93.5872 3.79208 93.3713 3.52012C92.7235 2.66536 92.1118 1.81061 91.4641 0.917004C91.5721 0.878152 91.644 0.839294 91.716 0.839294C93.911 0.839294 96.106 0.839294 98.3371 0.839294C98.5889 0.839294 98.6969 0.95587 98.8408 1.15013C100.676 3.8698 102.547 6.58946 104.418 9.30913C105.894 11.446 107.333 13.5829 108.808 15.7586C108.88 15.8363 108.916 15.914 108.988 15.9917C109.024 15.9917 109.024 15.9529 109.06 15.9529C109.06 15.9529 109.06 15.914 109.096 15.914V15.8752C109.096 15.8363 109.096 15.7975 109.096 15.7198C109.096 10.8244 109.096 5.96782 109.096 1.07242C109.096 1.03357 109.096 0.994713 109.096 0.994713V0.95587C109.42 0.839313 113.378 0.839313 113.882 0.95587C113.882 9.03716 113.882 17.1184 113.882 25.1997C113.702 25.1997 113.558 25.2386 113.414 25.2386C112.155 25.2386 110.931 25.2386 109.672 25.2386C109.348 25.2386 109.168 25.122 108.988 24.8501C105.606 19.8381 102.187 14.8262 98.7689 9.8142C98.6969 9.69764 98.6249 9.61994 98.553 9.54223C98.517 9.54223 98.517 9.54222 98.481 9.58107L98.445 9.61994C98.445 9.69764 98.445 9.7365 98.445 9.8142C98.445 14.9427 98.445 20.0712 98.445 25.1997V25.2386C98.481 25.122 98.481 25.122 98.445 25.1997Z" fill="white"/>
<path d="M41.4103 0.800415C41.6622 0.800415 41.8062 0.800415 41.9501 0.800415C44.0372 0.800415 46.0883 0.800415 48.1753 0.800415C48.4992 0.800415 48.7151 0.87812 48.895 1.18894C51.5938 5.19073 54.3286 9.19253 57.0634 13.1943C57.6391 14.0491 58.2149 14.865 58.7906 15.7197C58.8626 15.7974 58.8986 15.8751 59.0425 15.9528C59.0425 10.9409 59.0425 5.92893 59.0425 0.878124C60.6618 0.878124 62.2451 0.878124 63.8644 0.878124C63.8644 8.95941 63.8644 17.0407 63.8644 25.1997C63.7204 25.1997 63.5765 25.1997 63.4326 25.1997C62.1731 25.1997 60.9497 25.1997 59.6902 25.1997C59.3664 25.1997 59.1864 25.0831 59.0065 24.8112C56.5596 21.1979 54.1127 17.5846 51.6298 13.9325C50.6942 12.5338 49.7226 11.1351 48.7871 9.73645C48.7151 9.6199 48.6071 9.50334 48.4992 9.42564C48.4272 10.0861 48.4632 10.7466 48.4632 11.4071C48.4632 12.0676 48.4632 12.6892 48.4632 13.3497C48.4632 14.0102 48.4632 14.6707 48.4632 15.3312C48.4632 15.9917 48.4632 16.6133 48.4632 17.2738C48.4632 17.9343 48.4632 18.5948 48.4632 19.2553C48.4632 19.9158 48.4632 20.5374 48.4632 21.1979C48.4632 21.8584 48.4632 22.5189 48.4632 23.1794C48.4632 23.8398 48.4632 24.4615 48.4632 25.1608C46.8439 25.1608 45.2966 25.1608 43.6773 25.1608C43.6773 24.9666 43.6414 24.7334 43.6414 24.5392C43.6414 17.8566 43.6414 11.174 43.6414 4.49139C43.6414 4.02516 43.5334 3.63665 43.2455 3.28697C42.7417 2.62648 42.274 1.96599 41.7702 1.26665C41.6622 1.18894 41.5903 1.03353 41.4103 0.800415Z" fill="white"/>
<path d="M161.165 25.1997C159.33 25.1997 157.567 25.1997 155.732 25.1997C155.264 23.8787 154.796 22.5189 154.328 21.1202C151.09 21.1202 147.887 21.1202 144.612 21.1202C144.145 22.48 143.677 23.8399 143.209 25.1608C141.41 25.1608 139.611 25.1608 137.776 25.1608C137.883 24.85 137.955 24.578 138.063 24.3061C140.402 17.7789 142.705 11.2128 145.08 4.7245C145.332 4.06401 145.26 3.5978 144.828 3.09272C144.289 2.43223 143.785 1.69403 143.281 0.994683C143.245 0.955831 143.209 0.878117 143.173 0.839265C143.533 0.722708 151.377 0.683865 152.421 0.800422C155.336 8.92056 158.25 17.0407 161.165 25.1997ZM145.836 16.4579C148.211 16.4579 150.478 16.4579 152.781 16.4579C152.745 15.9917 149.542 6.47286 149.29 6.16204C148.175 9.61989 147.023 13 145.836 16.4579Z" fill="white"/>
<path d="M132.882 8.41549C132.522 7.98812 132.198 7.52191 131.802 7.17224C129.715 5.15192 127.34 4.87995 124.821 6.00667C122.734 6.93912 121.511 8.76518 121.007 11.0963C120.575 13.1555 120.719 15.1758 121.655 17.0407C122.698 19.2165 124.389 20.4597 126.585 20.8094C128.492 21.1202 130.183 20.5763 131.766 19.4884C132.09 19.2553 132.27 18.9833 132.27 18.5171C132.234 17.7789 132.27 17.0407 132.27 16.2637C132.126 16.2637 131.982 16.2248 131.874 16.2248C131.262 16.2248 130.687 16.2248 130.075 16.2248C129.895 16.2248 129.751 16.2248 129.643 16.0306C128.636 14.6707 127.592 13.272 126.62 11.9122C126.62 11.8734 126.62 11.8345 126.656 11.8345L126.692 11.7957C126.764 11.7957 126.872 11.7568 126.944 11.7568C130.219 11.7568 133.457 11.7568 136.732 11.7568C136.768 11.7568 136.804 11.7957 136.876 11.8345C136.876 11.9899 136.876 12.1453 136.876 12.3007C136.876 14.9815 136.876 17.6624 136.876 20.3432C136.876 20.654 136.804 20.926 136.588 21.1591C134.393 23.5679 131.766 24.9278 128.636 25.1609C126.369 25.3551 124.174 24.9666 122.122 23.9176C118.668 22.0915 116.653 19.0999 116.077 15.0204C115.753 12.767 115.933 10.5524 116.689 8.41549C117.624 5.85124 119.208 3.86979 121.475 2.50996C124.461 0.722747 127.664 0.373076 130.939 1.34438C133.349 2.08258 135.185 3.67552 136.552 5.92896C136.588 5.96781 136.588 6.04551 136.66 6.16206C135.365 6.93911 134.105 7.6773 132.882 8.41549Z" fill="white"/>
<path d="M38.0279 15.098C34.9693 15.098 31.9466 15.098 28.9239 15.098C28.816 15.4477 28.78 20.0711 28.888 20.6539C32.5583 20.6539 36.2287 20.6539 39.9351 20.6539C39.9351 22.1692 39.9351 23.6456 39.9351 25.1219C39.9351 25.1219 39.935 25.1608 39.8991 25.1608L39.8631 25.1997C39.7911 25.1997 39.6832 25.2385 39.6112 25.2385C34.4655 25.2385 29.2838 25.2385 24.1381 25.2385C24.1021 25.2385 24.0661 25.1997 23.9941 25.1997C23.9941 17.1184 23.9941 9.0371 23.9941 0.955811C29.3198 0.955811 34.6454 0.955811 39.971 0.955811C39.971 2.4322 39.971 3.90859 39.971 5.42383C39.0354 5.46268 38.1358 5.42383 37.2003 5.42383C36.2647 5.42383 35.3651 5.42383 34.4295 5.42383C33.4939 5.42383 32.5943 5.42383 31.6587 5.42383C30.7231 5.42383 29.8235 5.42383 28.888 5.42383C28.78 5.81235 28.744 9.85298 28.852 10.5523C29.8595 10.5523 30.8671 10.5523 31.8746 10.5523C32.9182 10.5523 33.9257 10.5523 34.9693 10.5523C35.9768 10.5523 36.9844 10.5523 38.0279 10.5523C38.0279 12.0676 38.0279 13.544 38.0279 15.098Z" fill="white"/>
<path d="M65.9155 25.1607C65.9155 25.0442 65.8795 24.8888 65.8795 24.7333C65.8795 23.6066 65.8795 22.5188 65.8795 21.3921C65.8795 21.1201 65.9515 20.9258 66.0954 20.6927C69.4419 15.7973 72.8244 10.8631 76.1709 5.96768C76.2789 5.81227 76.3868 5.65685 76.4948 5.50144C76.3149 5.34603 76.135 5.42376 75.955 5.42376C72.8244 5.42376 69.6578 5.42376 66.5272 5.42376C66.3473 5.42376 66.1674 5.42376 65.9155 5.42376C65.9155 3.90852 65.9155 2.43212 65.9155 0.994584C66.2394 0.91688 82.2522 0.839184 83.0439 0.955741C83.0439 1.11115 83.0439 1.26654 83.0439 1.42195C83.0439 2.50982 83.0439 3.59769 83.0439 4.68555C83.0439 4.95752 82.9719 5.19064 82.792 5.42376C79.3735 10.2803 75.991 15.1757 72.5725 20.0322C72.4646 20.2265 72.3207 20.3819 72.2127 20.5762C72.3926 20.7316 72.5725 20.6927 72.7165 20.6927C75.955 20.6927 79.1936 20.6927 82.3962 20.6927C82.5761 20.6927 82.756 20.6927 83.0079 20.6927C83.0079 22.208 83.0079 23.6843 83.0079 25.1996C82.72 25.2773 66.3473 25.2773 65.9155 25.1607Z" fill="white"/>
<path d="M85.1669 0.839294C86.7502 0.839294 88.3335 0.839294 89.9168 0.839294C89.9168 8.95943 89.9168 17.0407 89.9168 25.1609C89.6289 25.2774 85.8506 25.3163 85.2029 25.1997C85.1309 24.85 85.0949 1.57749 85.1669 0.839294Z" fill="white"/>
</svg>
