<svg width="113" height="60" viewBox="0 0 113 60" fill="none" xmlns="http://www.w3.org/2000/svg">
<path d="M50.5413 7.05895L50.183 8.99287H50.0935C49.6457 7.92921 48.3919 6.43042 45.6156 6.43042C41.1377 6.43042 36.5703 10.1532 35.5404 16.0517C34.6896 21.2249 36.9733 25.7697 42.2572 25.7697C44.1827 25.7697 46.4216 24.9477 47.5859 23.2072H47.6754L47.362 25.1411H52.3324L55.4222 7.1073C55.4669 7.05895 50.5413 7.05895 50.5413 7.05895ZM48.9292 16.0033C48.6158 17.7439 47.0485 20.6448 43.914 20.6448C40.8691 20.6448 40.2421 17.7439 40.5108 16.0517C40.8691 13.9727 42.5706 11.4103 45.4813 11.4103C48.3471 11.507 49.2875 13.9244 48.9292 16.0033Z" fill="white"/>
<path d="M58.2879 7.05895H62.9449L62.6315 8.99287H62.721C63.3031 8.12261 64.5122 6.43042 67.3332 6.43042L66.3929 11.8938C64.0196 11.9421 62.318 12.4739 61.8702 15.2298L60.1686 25.0928H55.1534L58.2879 7.05895Z" fill="white"/>
<path d="M70.6916 0H75.7068L73.3336 13.5858H73.4231L79.1996 7.05883H85.1104L77.4532 14.9879L81.8415 25.0927H76.1994L72.9753 16.39H72.841L71.4081 25.0927H66.3481L70.6916 0Z" fill="white"/>
<path d="M93.1258 6.38208C88.0658 6.38208 83.5431 11.1202 82.7371 16.1C81.7968 21.4667 85.1552 25.673 89.9465 25.673C91.6481 25.673 93.3944 25.0928 94.9617 24.0291C96.5737 22.9655 98.0067 21.4667 99.1261 19.4361H94.0213C93.1706 20.3547 92.2302 21.1283 90.7077 21.1283C88.7822 21.1283 87.3045 19.8712 87.3941 17.7439H99.9322C100.066 17.3088 100.156 17.0187 100.29 16.3418C101.186 10.7818 98.2306 6.38208 93.1258 6.38208ZM88.0658 14.0694C88.4688 13.0058 89.8569 10.9752 92.4541 10.9752C95.0513 10.9752 95.6782 13.0058 95.6782 14.0694H88.0658Z" fill="white"/>
<path d="M28.9579 0L20.1364 14.311H20.0469V0H15.7929L0.1651 25.0927H6.21024L14.9869 10.7816H15.0764V25.0927H19.3752L28.1518 10.7816H28.1966V25.0927H33.2566V0H28.9579Z" fill="white"/>
<path d="M112.918 7.0589H109.784L110.724 1.69226H106.336L105.977 3.77123C105.574 6.14029 104.186 6.86551 102.395 7.0589H102.35L101.589 11.1201H104.052L101.679 25.0444H106.694L109.067 11.1201H112.246L112.918 7.0589Z" fill="white"/>
<path d="M75.7517 52.5546C74.1396 56.6158 70.1991 60.0002 65.6765 60.0002C60.6165 60.0002 57.4372 55.6972 58.3775 50.2822C59.3179 45.0123 63.8405 40.7093 68.8558 40.7093C73.2441 40.7093 76.3338 43.9002 76.4234 48.2999H71.3634C71.0499 47.0429 70.2887 45.7375 68.1841 45.7375C65.8108 45.6408 63.8853 47.6714 63.4375 50.3305C62.9897 52.9897 64.2435 54.9236 66.6168 54.9236C68.6766 54.9236 69.9305 53.6666 70.6469 52.5062L75.7517 52.5546ZM34.3761 27.897L24.6591 34.279H27.3906L18.5692 48.59H18.4796V34.279H14.1809L5.40422 48.59H5.31466V34.279H0.299438V59.3716H4.68776L13.5092 45.0606H13.5987V59.3716H17.8975L33.4805 34.279H35.9434L34.3761 27.897ZM43.8244 59.3716H38.854L39.1674 57.4377H39.0779C37.9136 59.1783 35.6747 60.0002 33.7492 60.0002C28.4205 60.0002 26.1368 55.5038 27.0324 50.2822C28.0175 44.3837 32.6297 40.6609 37.1076 40.6609C39.8391 40.6609 41.1377 42.1114 41.5855 43.2234H41.675L42.0333 41.2894H47.0037L43.8244 59.3716ZM35.4508 54.972C38.5405 54.972 40.1078 52.0711 40.466 50.3305C40.8242 48.1549 39.8839 45.7375 37.018 45.7375C34.1522 45.7375 32.4506 48.2999 32.0476 50.3789C31.7789 52.1194 32.4058 54.972 35.4508 54.972ZM59.4522 41.3378H56.3177L57.2581 35.9712H52.8697L52.5115 38.0501C52.1085 40.4192 50.7203 41.1444 48.9292 41.3378H48.8396L48.1232 45.399H50.586L48.2127 59.3233H53.228L55.6012 45.399H58.7805L59.4522 41.3378ZM80.4535 34.279H85.4687L83.9462 43.2234H84.0358C85.1105 41.5312 86.5434 40.6609 88.7375 40.6609C90.3496 40.6609 92.1407 41.2895 92.9915 42.6916C94.0662 44.4321 93.9766 46.0276 93.3945 49.2669L91.6929 59.3233H86.6777L88.3345 49.5086C88.4689 48.6384 88.9614 45.7375 86.3195 45.7375C83.4984 45.7375 83.0058 48.445 82.8715 49.3152L81.1699 59.3233H76.1547L80.4535 34.279Z" fill="white"/>
</svg>
