<svg width="89" height="42" viewBox="0 0 89 42" fill="none" xmlns="http://www.w3.org/2000/svg">
<path d="M87.9226 0.310059C84.4157 6.93627 80.9506 13.5625 77.4437 20.1887C81.2846 27.3107 85.0837 34.4328 88.9246 41.5999C88.7576 41.645 88.6323 41.6901 88.5071 41.6901C84.7497 41.6901 81.0341 41.6901 77.2767 41.6901C76.901 41.6901 76.7758 41.5098 76.6088 41.1942C75.0223 38.084 73.3941 34.9737 71.7659 31.8634C71.6824 31.6831 71.5572 31.5028 71.4319 31.2324C71.3067 31.4578 71.1814 31.6381 71.098 31.8184C69.5533 34.9286 67.9668 38.0389 66.4221 41.1491C66.2551 41.4647 66.0881 41.645 65.7124 41.645C62.0803 41.645 58.4064 41.645 54.7743 41.645C54.6908 41.645 54.6073 41.645 54.3986 41.5999C54.5238 41.3745 54.6073 41.1942 54.6908 41.0139C58.2394 34.3426 61.7463 27.6263 65.2949 20.955C65.3367 20.9099 65.3367 20.8648 65.3784 20.8198C65.6707 20.4591 65.5872 20.1436 65.3784 19.7379C64.5434 18.2504 63.792 16.7629 62.9987 15.2754C60.4521 10.4973 57.9054 5.71921 55.317 0.941127C55.1918 0.715746 55.1083 0.53544 55.0248 0.310059C59.0744 0.310059 63.124 0.310059 67.1318 0.310059C67.1318 0.355135 67.1319 0.40021 67.1736 0.40021C68.593 3.19494 69.9707 6.03474 71.3902 8.82947C71.4319 8.9647 71.5154 9.05485 71.6407 9.19008C71.7659 8.9647 71.8494 8.7844 71.9747 8.60409C73.1019 6.39535 74.2291 4.14154 75.3563 1.9328C75.6485 1.39189 75.899 0.850974 76.1495 0.310059C80.0739 0.310059 83.9982 0.310059 87.9226 0.310059Z" fill="white"/>
<path d="M22.9617 0.310059C23.0034 1.03128 23.0869 1.7525 23.1287 2.47372C23.2539 4.45707 23.3792 6.4855 23.5044 8.46886C23.5879 9.50561 23.6296 10.4973 23.7131 11.5791C19.413 11.5791 15.1547 11.5791 10.8546 11.5791C10.8546 13.4272 10.8546 15.1852 10.8546 17.0333C14.3615 17.0333 17.8266 17.0333 21.3335 17.0333C21.3335 20.7747 21.3335 24.4259 21.3335 28.2123C17.8266 28.2123 14.3615 28.2123 10.8129 28.2123C10.8129 32.6748 10.8129 37.0472 10.8129 41.4647C10.6041 41.4647 10.4789 41.5098 10.3119 41.5098C6.972 41.5098 3.63212 41.5098 0.292238 41.5098C0.208741 41.5098 0.125246 41.5098 0 41.5098C0 27.7615 0 14.0583 0 0.310059C7.68172 0.310059 15.3217 0.310059 22.9617 0.310059Z" fill="white"/>
<path d="M23.2538 21.4058C23.379 13.0667 26.6772 7.16168 32.8977 3.1499C34.9016 1.84268 37.1143 1.16654 39.4522 0.896082C42.5416 0.535472 45.5892 0.851007 48.5116 2.15822C53.9389 4.54726 58.406 10.317 59.575 16.5376C60.4099 21.0001 60.1595 25.3725 58.3225 29.4744C55.7341 35.3344 51.6428 39.3461 45.6727 40.7435C39.0765 42.2761 33.2734 40.4731 28.5141 35.1991C25.9257 32.3142 24.214 28.8885 23.5878 24.9217C23.379 23.6145 23.3373 22.3073 23.2538 21.4058ZM38.5337 20.8198C38.5337 23.6596 38.5337 26.4543 38.5337 29.2941C38.5337 30.962 39.7444 32.4946 41.2474 32.6749C42.9591 32.9002 44.4203 31.9536 44.8378 30.2407C44.963 29.7449 44.963 29.2491 44.963 28.7532C44.963 23.5244 44.963 18.2955 44.963 13.0667C44.963 12.7511 44.963 12.4356 44.9213 12.1201C44.7125 10.0466 42.8338 8.6492 40.9552 9.19012C39.5357 9.5958 38.5337 10.9481 38.5337 12.5708C38.5337 15.2754 38.5337 18.0251 38.5337 20.8198Z" fill="white"/>
</svg>
