<svg width="136" height="54" viewBox="0 0 136 54" fill="none" xmlns="http://www.w3.org/2000/svg">
<path d="M49.335 27.0231C49.2455 41.6242 38.409 52.9377 25.5127 53.1311C12.0791 53.3244 1.15304 41.7692 0.929148 27.5065C0.660476 12.7604 11.6313 0.866727 25.0649 0.866727C38.4986 0.818379 49.335 12.4703 49.335 27.0231Z" fill="white"/>
<path d="M70.7393 38.0464C70.7393 36.2575 71.0975 34.6137 71.9931 33.0665C73.2917 30.8909 75.1276 29.6338 77.4561 29.1987C79.3368 28.8603 81.128 29.0537 82.8296 29.9239C84.4864 30.7458 85.6954 32.0996 86.5014 33.8401C87.4418 35.9674 87.7553 38.1914 87.1731 40.4638C86.3671 43.6548 84.4416 45.7338 81.4862 46.6524C79.6951 47.1842 77.8591 47.1358 76.1128 46.5073C73.2917 45.4437 71.6349 43.268 70.9184 40.2221C70.7841 39.4968 70.7393 38.7716 70.7393 38.0464ZM75.2172 37.9497C75.2172 39.1101 75.3963 40.1254 75.8889 41.044C76.6949 42.5911 77.9487 43.268 79.6055 43.0263C80.9041 42.8812 81.7997 42.0593 82.337 40.8022C83.1878 38.82 83.143 36.7893 82.1579 34.8554C80.8145 32.2446 77.4561 32.2446 76.0232 34.8071C75.4411 35.8224 75.2172 36.8861 75.2172 37.9497Z" fill="white"/>
<path d="M89.9047 46.7006C89.9047 40.8988 89.9047 35.1454 89.9047 29.392C90.0838 29.392 90.2182 29.3436 90.3525 29.3436C92.4123 29.3436 94.4722 29.2953 96.5768 29.3436C99.1739 29.392 101.368 30.504 102.935 32.8247C103.697 33.9367 104.055 35.2421 104.279 36.5475C104.503 38.143 104.368 39.6901 103.831 41.2373C103.025 43.6063 101.502 45.2018 99.3083 46.1204C98.3679 46.5072 97.4276 46.6523 96.4424 46.6523C94.4722 46.6523 92.5019 46.6523 90.5316 46.6523C90.3077 46.7006 90.1286 46.7006 89.9047 46.7006ZM94.2483 42.8811C95.0991 42.8811 95.9499 42.8811 96.7559 42.8811H96.8007C98.0545 42.6394 98.95 41.8658 99.4426 40.6088C99.8008 39.6901 99.9352 38.7715 99.9352 37.7562C99.8904 36.6442 99.6665 35.6289 99.0844 34.7103C98.4575 33.695 97.5619 33.1631 96.4424 33.1631C95.8603 33.1631 95.2782 33.1631 94.6513 33.1631C94.5169 33.1631 94.3826 33.2115 94.2483 33.2115C94.2483 36.4508 94.2483 39.6418 94.2483 42.8811Z" fill="white"/>
<path d="M56.0071 7.20032C57.4848 7.20032 58.9177 7.20032 60.3954 7.20032C60.3954 7.44206 60.4402 7.63544 60.4402 7.78049C60.4402 11.0682 60.4402 14.4042 60.4402 17.6918C60.4402 18.3204 60.5298 18.8522 60.7984 19.4324C61.2462 20.3026 61.9179 20.7861 62.8135 20.8345C63.2165 20.8828 63.6195 20.8828 64.0225 20.7861C65.1868 20.496 65.8137 19.5774 65.948 18.1753C65.948 18.0303 65.948 17.8369 65.948 17.6918C65.948 14.4525 65.948 11.2615 65.948 8.02223C65.948 7.92553 65.948 7.78049 65.948 7.6838C65.948 7.20032 65.948 7.20032 66.3958 7.20032C67.56 7.20032 68.7243 7.20032 69.8885 7.20032C69.9333 7.20032 69.9781 7.20032 70.0676 7.20032C70.2468 7.20032 70.3811 7.29702 70.3811 7.49041C70.3811 7.63545 70.3811 7.73214 70.3811 7.87719C70.3811 11.0198 70.3811 14.1624 70.3811 17.3051C70.3811 18.1753 70.3811 19.0456 70.1572 19.8675C69.6198 21.8498 68.5004 23.3002 66.754 24.1222C65.7689 24.5573 64.7837 24.8474 63.7091 24.799C62.8583 24.799 62.0075 24.8474 61.1567 24.6056C59.2312 24.0738 57.7087 23.0101 56.7683 21.0762C56.3206 20.1093 56.0519 19.0939 56.0519 18.0303C56.0519 14.5492 56.0519 11.1165 56.0519 7.63545C55.9623 7.53875 56.0071 7.39371 56.0071 7.20032Z" fill="white"/>
<path d="M104.861 46.6524C104.995 46.2173 105.129 45.8788 105.219 45.5404C107.01 40.2704 108.801 35.0488 110.548 29.7789C110.727 29.2954 110.727 29.2954 111.13 29.2954C112.518 29.2954 113.951 29.2954 115.339 29.2954C115.787 29.2954 115.787 29.2954 115.966 29.7789C117.802 35.2422 119.682 40.7056 121.518 46.1689C121.563 46.314 121.608 46.459 121.653 46.604C121.518 46.604 121.429 46.6524 121.295 46.6524C120.041 46.6524 118.787 46.6524 117.488 46.6524C117.13 46.6524 117.13 46.6524 116.996 46.2656C116.727 45.4437 116.458 44.5734 116.235 43.7515C116.145 43.5098 116.055 43.4131 115.787 43.4131C113.996 43.4131 112.204 43.4131 110.369 43.4131C110.324 43.4131 110.234 43.4131 110.145 43.4131C110.1 43.5581 110.01 43.7032 109.966 43.8482C109.742 44.6218 109.473 45.3953 109.249 46.2173C109.115 46.6524 109.115 46.6524 108.712 46.6524C107.547 46.6524 106.338 46.6524 105.174 46.6524C105.174 46.7007 105.085 46.6524 104.861 46.6524ZM115.115 39.8837C114.488 37.9014 113.906 36.0158 113.324 34.1302C113.1 34.517 111.488 39.5452 111.488 39.8837C112.652 39.8837 113.816 39.8837 115.115 39.8837Z" fill="white"/>
<path d="M103.07 24.5088C102.891 24.5088 102.756 24.5572 102.667 24.5572C101.458 24.5572 100.249 24.5572 99.0396 24.5572C98.6813 24.5572 98.6366 24.5572 98.5022 24.1704C98.2336 23.3968 98.0097 22.6233 97.741 21.8497C97.6066 21.4629 97.6066 21.4629 97.2484 21.4629C95.502 21.4629 93.8005 21.4629 92.0541 21.4629C91.6959 21.4629 91.6958 21.4629 91.5615 21.8497C91.2928 22.6233 91.0689 23.4452 90.8003 24.2187C90.6659 24.6539 90.6659 24.6539 90.2629 24.6539C89.0987 24.6539 87.8896 24.6539 86.7254 24.6539C86.5911 24.6539 86.5015 24.6539 86.3224 24.6055C86.3672 24.4121 86.412 24.3154 86.4567 24.1704C87.3971 21.4146 88.3374 18.6587 89.2778 15.9029C90.1734 13.2437 91.0689 10.5846 91.9645 7.92543C92.1884 7.24856 92.0541 7.2969 92.8153 7.2969C94.1587 7.2969 95.502 7.2969 96.8454 7.2969C97.338 7.2969 97.338 7.2969 97.4723 7.78038C99.0396 12.4701 100.652 17.2083 102.219 21.898C102.443 22.6233 102.711 23.3001 102.935 24.0253C102.935 24.1704 102.98 24.3154 103.07 24.5088ZM94.696 11.9867C94.6512 11.9867 94.6065 11.9867 94.6065 11.9867C94.4273 12.4702 94.293 12.9053 94.1139 13.3888C93.9348 13.8722 93.8004 14.3557 93.6661 14.8392C93.5318 15.3227 93.3527 15.8062 93.2183 16.2897C93.084 16.7731 92.8601 17.2083 92.7705 17.7884C93.2183 17.7884 93.6213 17.7884 94.0243 17.7884C94.4274 17.7884 94.7856 17.7884 95.1886 17.7884C95.5916 17.7884 95.9946 17.8368 96.4424 17.7401C95.8155 15.7578 95.2334 13.8722 94.696 11.9867Z" fill="white"/>
<path d="M85.5164 9.61783C84.7999 10.5848 84.0835 11.5518 83.367 12.5671C83.2327 12.4704 83.0983 12.3737 83.0088 12.277C82.2475 11.6484 81.4415 11.165 80.5459 10.8749C79.7847 10.6331 79.0235 10.5364 78.2622 10.7298C78.1279 10.7782 77.9488 10.8265 77.8144 10.9232C76.8293 11.3584 77.0084 12.6154 77.6353 13.0505C78.0831 13.389 78.5757 13.6307 79.113 13.7758C79.7847 13.9692 80.4564 14.1625 81.0833 14.3559C82.158 14.646 83.1431 15.2262 83.9939 15.9998C84.7552 16.6766 85.2029 17.5953 85.3373 18.6589C85.4716 19.4808 85.382 20.3511 85.1582 21.1247C84.7104 22.5268 83.8148 23.4454 82.6058 24.0739C81.352 24.7024 80.0086 24.9442 78.6652 24.8475C77.1427 24.7991 75.7098 24.4124 74.3217 23.6871C73.65 23.3487 73.0679 22.9136 72.5305 22.3817C72.441 22.285 72.3066 22.1883 72.1723 22.0433C72.8888 21.0763 73.6052 20.1094 74.2769 19.1424C74.4112 19.2874 74.5456 19.3358 74.6351 19.4325C75.9337 20.5445 77.3666 21.0763 79.0235 21.1247C79.4713 21.1247 79.919 21.028 80.322 20.8346C80.7251 20.6412 80.9489 20.3028 80.9937 19.8193C81.0385 19.3358 80.8594 18.949 80.5012 18.7073C80.0982 18.4655 79.6951 18.2238 79.2474 18.0304C78.4413 17.7403 77.6353 17.4986 76.8293 17.2568C75.7994 16.9667 74.859 16.4349 74.053 15.6613C73.2918 14.9361 72.844 13.9692 72.7544 12.8571C72.5753 10.6331 73.6052 8.74755 75.4859 7.78059C76.7845 7.10372 78.1727 6.86198 79.6056 6.95868C81.6654 7.10372 83.5013 7.87729 85.1582 9.23103C85.2477 9.32773 85.3373 9.37608 85.4268 9.47277C85.4268 9.52112 85.4716 9.56948 85.5164 9.61783Z" fill="white"/>
<path d="M127.967 36.2091C128.056 35.9674 128.146 35.8223 128.191 35.7256C129.041 33.7917 129.847 31.8578 130.698 29.8755C130.833 29.5854 130.967 29.4404 131.325 29.4404C132.713 29.4404 134.057 29.4404 135.445 29.4404C135.579 29.4404 135.713 29.4404 135.893 29.4887C135.803 29.7305 135.713 29.8755 135.624 30.0205C134.191 32.7764 132.758 35.5322 131.325 38.2881C131.012 38.8683 130.698 39.4968 130.385 40.077C130.25 40.3187 130.206 40.5604 130.206 40.8505C130.206 42.5911 130.206 44.3799 130.206 46.1205C130.206 46.3139 130.206 46.4589 130.161 46.6523C128.683 46.6523 127.205 46.6523 125.728 46.6523C125.728 46.4589 125.683 46.2655 125.683 46.1205C125.683 44.4283 125.683 42.6878 125.683 40.9956C125.683 40.6088 125.593 40.2703 125.459 39.9803C123.758 36.6926 122.101 33.4049 120.399 30.1173C120.31 29.9239 120.175 29.6821 120.041 29.4404C120.175 29.392 120.265 29.392 120.399 29.392C121.832 29.392 123.265 29.392 124.698 29.392C125.011 29.392 125.101 29.5854 125.19 29.7788C126.041 31.7611 126.892 33.7434 127.743 35.7256C127.788 35.8707 127.832 35.9674 127.967 36.2091Z" fill="white"/>
<path d="M60.7537 33.2116C59.1416 33.2116 57.6191 33.2116 56.0967 33.2116C55.9623 32.7764 55.9623 29.8756 56.0967 29.4888C56.4101 29.3921 69.396 29.3921 69.8438 29.4888C69.9781 29.7789 69.9781 32.5347 69.8885 33.2116C69.7542 33.2116 69.5751 33.2599 69.4407 33.2599C68.2317 33.2599 66.9779 33.2599 65.7689 33.2599C65.5898 33.2599 65.4554 33.2599 65.2763 33.2599C65.2763 33.5017 65.2315 33.6951 65.2315 33.8884C65.2315 37.9497 65.2315 42.0109 65.2315 46.0722C65.2315 46.7974 65.2763 46.7491 64.6046 46.7491C63.5299 46.7491 62.4105 46.7491 61.3358 46.7491C61.1567 46.7491 61.0223 46.7491 60.7984 46.7491C60.7984 46.5073 60.7537 46.3139 60.7537 46.1205C60.7537 42.0593 60.7537 37.9497 60.7537 33.8884C60.7537 33.6467 60.7537 33.4533 60.7537 33.2116Z" fill="white"/>
</svg>
